#Comment line ignore any data following # character 
#Hierarchical Translation and Rotation (.htr) file 
[Header]	
#Header keywords are followed by a single value 
FileType HTR		#Single word string
DataType HTRS		#Translation followed by rotation and scale data
FileVersion 1		#integer
NumSegments 25		#integer
NumFrames 4		#integer
DataFrameRate 30		#integer, data frame rate in this file
EulerRotationOrder ZYX
CalibrationUnits mm
RotationUnits Degrees
GlobalAxisofGravity Y
BoneLengthAxis Y
ScaleFactor 1.00
[SegmentNames&Hierarchy]
#CHILD	PARENT
BN_Tick_Root GLOBAL
BN_Torso BN_Tick_Root
BN_L_Leg_Front01 BN_Torso
BN_L_Leg_Rear01 BN_Torso
BN_MetalTop BN_Torso
BN_Neck BN_Torso
BN_R_Leg_Front01 BN_Torso
BN_R_Leg_Rear01 BN_Torso
BN_Sack BN_Torso
BN_L_Leg_Front02 BN_L_Leg_Front01
BN_L_Leg_Front03 BN_L_Leg_Front02
BN_L_Leg_Rear02 BN_L_Leg_Rear01
BN_L_Leg_Rear03 BN_L_Leg_Rear02
BN_Head BN_Neck
BN_Needle BN_Head
BN_R_Leg_Front02 BN_R_Leg_Front01
BN_R_Leg_Front03 BN_R_Leg_Front02
BN_R_Leg_Rear02 BN_R_Leg_Rear01
BN_R_Leg_Rear03 BN_R_Leg_Rear02
BN_SackDef01 BN_Sack
BN_SackDef02 BN_Sack
BN_SackDef03 BN_Sack
BN_SackDef04 BN_Sack
BN_SackDef05 BN_Sack
BN_SackDef06 BN_Sack
[BasePosition]
#SegmentName Tx, Ty, Tz, Rx, Ry, Rz, BoneLength
BN_Tick_Root 0.000000 0.000000 0.000000 -90.000000 0.000000 0.000000 10.000000 
BN_Torso 0.000000 0.000000 0.000000 0.000000 0.000000 0.000000 10.000000 
BN_L_Leg_Front01 0.000000 0.000000 0.000000 0.000000 0.000000 0.000000 10.000000 
BN_L_Leg_Rear01 0.000000 0.000000 0.000000 0.000000 0.000000 0.000000 10.000000 
BN_MetalTop 0.000000 0.000000 0.000000 0.000000 0.000000 0.000000 10.000000 
BN_Neck 0.000000 0.000000 0.000000 0.000000 0.000000 0.000000 10.000000 
BN_R_Leg_Front01 0.000000 0.000000 0.000000 0.000000 0.000000 0.000000 10.000000 
BN_R_Leg_Rear01 0.000000 0.000000 0.000000 0.000000 0.000000 0.000000 10.000000 
BN_Sack 0.000000 0.000000 0.000000 0.000000 0.000000 0.000000 10.000000 
BN_L_Leg_Front02 0.000000 0.000000 0.000000 0.000000 0.000000 0.000000 10.000000 
BN_L_Leg_Front03 0.000000 0.000000 0.000000 0.000000 0.000000 0.000000 10.000000 
BN_L_Leg_Rear02 0.000000 0.000000 0.000000 0.000000 0.000000 0.000000 10.000000 
BN_L_Leg_Rear03 0.000000 0.000000 0.000000 0.000000 0.000000 0.000000 10.000000 
BN_Head 0.000000 0.000000 0.000000 0.000000 0.000000 0.000000 10.000000 
BN_Needle 0.000000 0.000000 0.000000 0.000000 0.000000 0.000000 10.000000 
BN_R_Leg_Front02 0.000000 0.000000 0.000000 0.000000 0.000000 0.000000 10.000000 
BN_R_Leg_Front03 0.000000 0.000000 0.000000 0.000000 0.000000 0.000000 10.000000 
BN_R_Leg_Rear02 0.000000 0.000000 0.000000 0.000000 0.000000 0.000000 10.000000 
BN_R_Leg_Rear03 0.000000 0.000000 0.000000 0.000000 0.000000 0.000000 10.000000 
BN_SackDef01 0.000000 0.000000 0.000000 0.000000 0.000000 0.000000 10.000000 
BN_SackDef02 0.000000 0.000000 0.000000 0.000000 0.000000 0.000000 10.000000 
BN_SackDef03 0.000000 0.000000 0.000000 0.000000 0.000000 0.000000 10.000000 
BN_SackDef04 0.000000 0.000000 0.000000 0.000000 0.000000 0.000000 10.000000 
BN_SackDef05 0.000000 0.000000 0.000000 0.000000 0.000000 0.000000 10.000000 
BN_SackDef06 0.000000 0.000000 0.000000 0.000000 0.000000 0.000000 10.000000 
#Beginning of Data. Separated by tabs
#Fr	Tx	Ty	Tz	Rx	Ry	Rz	SF
[BN_Tick_Root]
72 0.000000 0.000000 0.000000 0.000000 0.000000 -0.000020 0.000000
73 0.000000 0.000000 0.000000 0.000000 0.000000 -0.000020 0.000000
74 0.000000 0.000000 0.000000 0.000000 0.000000 -0.000020 0.000000
75 0.000000 0.000000 0.000000 0.000000 0.000000 -0.000020 0.000000
[BN_Torso]
72 10.022041 43.130928 213.988937 -17.729723 -2.000396 -4.065697 218.522278
73 10.022041 43.130928 214.635071 -15.967816 -1.215942 -4.118896 219.155029
74 10.022041 43.130920 213.052124 -17.454472 -1.546480 -3.495310 217.604965
75 10.022041 43.130917 211.469208 -18.945166 -1.860770 -2.863130 216.055420
[BN_L_Leg_Front01]
72 -68.477791 10.734189 -26.804373 -69.491158 41.710472 140.812302 74.316254
73 -68.477791 10.734189 -26.804373 -68.322464 44.445644 141.421829 74.316254
74 -68.477791 10.734189 -26.804373 -69.410759 43.172436 139.898666 74.316254
75 -68.477791 10.734189 -26.804373 -70.385361 41.335732 138.589005 74.316254
[BN_L_Leg_Rear01]
72 -72.133743 -73.994843 -18.268616 34.868282 64.449791 -148.762375 104.939293
73 -72.133743 -73.994843 -18.268616 39.319530 64.053764 -144.929321 104.939293
74 -72.133743 -73.994843 -18.268616 35.763943 64.401878 -148.845505 104.939293
75 -72.133743 -73.994843 -18.268616 32.121986 64.642418 -152.847717 104.939293
[BN_MetalTop]
72 0.000008 13.737477 26.403606 92.251366 -17.585709 -97.417938 29.763546
73 0.000008 13.737477 26.403606 92.251366 -17.585709 -97.417938 29.763546
74 0.000008 13.737477 26.403606 92.251366 -17.585709 -97.417938 29.763546
75 0.000008 13.737477 26.403606 92.251366 -17.585709 -97.417938 29.763546
[BN_Neck]
72 0.000014 95.233284 10.002091 -89.999672 -65.297531 89.999657 95.757088
73 0.000014 95.233284 10.002091 -89.999672 -65.297531 89.999657 95.757088
74 0.000014 95.233284 10.002091 -89.999672 -65.297531 89.999657 95.757088
75 0.000014 95.233284 10.002091 -89.999672 -65.297531 89.999657 95.757088
[BN_R_Leg_Front01]
72 68.477768 10.734107 -26.804314 68.499344 44.900112 55.432434 74.316193
73 68.477768 10.734107 -26.804314 66.223282 45.954075 53.438496 74.316193
74 68.477768 10.734107 -26.804314 68.022560 44.876896 54.206402 74.316193
75 68.477768 10.734107 -26.804314 69.769035 43.783287 54.913136 74.316193
[BN_R_Leg_Rear01]
72 72.133751 -73.994873 -18.268644 -0.227267 72.815933 22.852972 104.939331
73 72.133751 -73.994873 -18.268644 -7.460989 72.552750 15.762166 104.939331
74 72.133751 -73.994873 -18.268644 -1.969236 72.736938 20.078211 104.939331
75 72.133751 -73.994873 -18.268644 3.592805 72.796234 24.464632 104.939331
[BN_Sack]
72 -0.000000 -78.024918 33.657791 91.379875 -11.014523 -97.199577 84.974907
73 -0.000000 -78.024918 33.657791 91.379875 -11.014523 -97.199577 84.974907
74 -0.000000 -78.024918 33.657791 91.379875 -11.014523 -97.199577 84.974907
75 -0.000000 -78.024918 33.657791 91.379883 -11.014522 -97.199577 84.974907
[BN_L_Leg_Front02]
72 142.805023 -0.000015 -0.000104 0.000745 0.733602 -134.130341 142.805023
73 142.805023 -0.000015 -0.000104 0.058774 0.636180 -125.182373 142.805023
74 142.805023 -0.000015 -0.000104 0.096800 0.558015 -117.645065 142.805023
75 142.805023 -0.000015 -0.000104 0.095689 0.558208 -117.873138 142.805023
[BN_L_Leg_Front03]
72 124.143021 -0.000045 0.000007 0.349387 -0.292147 138.518921 124.143021
73 124.143021 -0.000045 0.000007 0.354841 -0.331124 132.029190 124.143021
74 124.143021 -0.000045 0.000007 0.354946 -0.364760 125.851852 124.143021
75 124.143021 -0.000045 0.000007 0.353206 -0.363158 126.046089 124.143021
[BN_L_Leg_Rear02]
72 139.939041 0.000075 -0.000022 0.092962 -0.216298 90.782295 139.939041
73 139.939041 0.000075 -0.000022 0.091445 -0.217600 90.963051 139.939041
74 139.939041 0.000075 -0.000022 0.091327 -0.217650 91.025444 139.939041
75 139.939041 0.000075 -0.000022 0.091208 -0.217699 91.087814 139.939041
[BN_L_Leg_Rear03]
72 142.839615 0.000179 -0.000060 0.000382 -0.002316 -108.743706 142.839615
73 142.839615 0.000179 -0.000060 0.000387 -0.002315 -108.958824 142.839615
74 142.839615 0.000179 -0.000060 0.000388 -0.002315 -109.035751 142.839615
75 142.839615 0.000179 -0.000060 0.000390 -0.002315 -109.112656 142.839615
[BN_Head]
72 57.062447 -0.000030 0.000000 9.693866 -5.061827 -6.838580 57.062447
73 57.062447 -0.000030 0.000000 9.279600 -5.730738 -5.040777 57.062447
74 57.062447 -0.000030 0.000000 8.964724 -5.099502 -6.480639 57.062447
75 57.062447 -0.000030 0.000000 8.634262 -4.476233 -7.922908 57.062447
[BN_Needle]
72 33.915161 69.677544 -0.000060 0.000003 0.000030 87.896805 77.493217
73 33.915161 69.677544 -0.000060 0.000003 0.000030 87.896805 77.493217
74 33.915161 69.677544 -0.000060 0.000003 0.000030 87.896805 77.493217
75 33.915161 69.677544 -0.000060 0.000003 0.000030 87.896805 77.493217
[BN_R_Leg_Front02]
72 142.804947 -0.000060 0.000060 -0.076133 0.604736 121.813774 142.804947
73 142.804947 -0.000060 0.000060 -0.074074 0.607149 122.081863 142.804947
74 142.804947 -0.000060 0.000060 -0.072338 0.612610 122.584999 142.804947
75 142.804947 -0.000060 0.000060 -0.070555 0.618055 123.088127 142.804947
[BN_R_Leg_Front03]
72 124.143005 -0.000060 -0.000156 -0.351641 -0.346109 -129.348373 124.143005
73 124.143005 -0.000060 -0.000156 -0.351761 -0.344591 -129.569199 124.143005
74 124.143005 -0.000060 -0.000156 -0.352839 -0.342942 -129.972717 124.143005
75 124.143005 -0.000060 -0.000156 -0.353929 -0.341301 -130.376251 124.143005
[BN_R_Leg_Rear02]
72 139.939011 -0.000149 0.000015 -0.001547 -0.244607 -118.538887 139.939011
73 139.939011 -0.000149 0.000015 0.003194 -0.243987 -119.704559 139.939011
74 139.939011 -0.000149 0.000015 0.001564 -0.245422 -119.329811 139.939011
75 139.939011 -0.000149 0.000015 -0.000076 -0.246845 -118.955078 139.939011
[BN_R_Leg_Rear03]
72 142.839417 0.000075 0.000119 0.002158 -0.000923 136.330963 142.839417
73 142.839417 0.000075 0.000119 0.002150 -0.000941 137.257660 142.839417
74 142.839417 0.000075 0.000119 0.002153 -0.000935 136.966888 142.839417
75 142.839417 0.000075 0.000119 0.002155 -0.000930 136.676132 142.839417
[BN_SackDef01]
72 249.782272 -3.760844 42.949425 -128.408218 -44.374973 -11.740845 253.475800
73 249.782272 -3.760844 42.949425 -128.408218 -44.374973 -11.740845 253.475800
74 249.782272 -3.760844 42.949425 -128.408218 -44.374973 -11.740845 253.475800
75 249.782272 -3.760844 42.949425 -128.408218 -44.374973 -11.740845 253.475800
[BN_SackDef02]
72 138.789795 -62.131748 45.674385 32.077126 -27.375721 -88.781525 158.773758
73 138.789795 -62.131748 45.674385 32.077126 -27.375721 -88.781525 158.773758
74 138.789795 -62.131748 45.674385 32.077126 -27.375721 -88.781525 158.773758
75 138.789795 -62.131748 45.674385 32.077126 -27.375721 -88.781525 158.773758
[BN_SackDef03]
72 249.782272 -3.760785 -42.949661 18.144459 44.375008 -11.740894 253.475845
73 249.782272 -3.760785 -42.949661 18.144459 44.375008 -11.740894 253.475845
74 249.782272 -3.760785 -42.949661 18.144459 44.375008 -11.740894 253.475845
75 249.782272 -3.760785 -42.949661 18.144459 44.375008 -11.740894 253.475845
[BN_SackDef04]
72 138.789780 -62.131645 -45.674473 146.059982 27.375723 -88.781555 158.773743
73 138.789780 -62.131645 -45.674473 146.059982 27.375723 -88.781555 158.773743
74 138.789780 -62.131645 -45.674473 146.059982 27.375723 -88.781555 158.773743
75 138.789780 -62.131645 -45.674473 146.059982 27.375723 -88.781555 158.773743
[BN_SackDef05]
72 118.790161 46.167137 -63.831196 0.155741 51.314110 90.605110 142.537460
73 118.790161 46.167137 -63.831196 0.155741 51.314110 90.605110 142.537460
74 118.790161 46.167137 -63.831196 0.155741 51.314110 90.605110 142.537460
75 118.790161 46.167137 -63.831196 0.155741 51.314110 90.605110 142.537460
[BN_SackDef06]
72 118.790207 46.167194 63.831219 152.058487 -51.314072 90.605019 142.537537
73 118.790207 46.167194 63.831219 152.058487 -51.314072 90.605019 142.537537
74 118.790207 46.167194 63.831219 152.058487 -51.314072 90.605019 142.537537
75 118.790207 46.167194 63.831219 152.058487 -51.314072 90.605019 142.537537
